<svg xmlns="http://www.w3.org/2000/svg" xmlns:xlink="http://www.w3.org/1999/xlink" width="123" height="44" viewBox="0 0 123 44">
    <defs>
        <path id="uhohitwkta" d="M0 43.69L122.76 43.69 122.76 0 0 0z"/>
        <path id="9hl5v5mqec" d="M0 43.69L122.76 43.69 122.76 0 0 0z"/>
        <path id="zrfg9i875e" d="M0 43.69L122.76 43.69 122.76 0 0 0z"/>
        <path id="qgte2qvcdg" d="M0 43.69L122.76 43.69 122.76 0 0 0z"/>
        <path id="kjp9ar8qii" d="M0 43.69L122.76 43.69 122.76 0 0 0z"/>
        <path id="lf9n1tyvrk" d="M0 43.69L122.76 43.69 122.76 0 0 0z"/>
        <path id="6ju7yqfkum" d="M0 43.69L122.76 43.69 122.76 0 0 0z"/>
        <path id="rp6fajiblo" d="M0 43.69L122.76 43.69 122.76 0 0 0z"/>
        <path id="2a7hhvih0q" d="M0 43.69L122.76 43.69 122.76 0 0 0z"/>
    </defs>
    <g fill="none" fill-rule="evenodd">
        <g>
            <g>
                <g>
                    <path fill="#E20714" fill-rule="nonzero" d="M7.062 9.909h23.669V26.31c0 5.021-5.278 10.39-11.834 10.39-6.21 0-11.835-5.462-11.835-10.39V9.909z" transform="translate(-7.000000, 0.000000) translate(7.000000, 0.000000) translate(0.163594, 0.091454)"/>
                    <path stroke="#E20714" stroke-width=".5" d="M7.062 9.909h23.669V26.31c0 5.021-5.278 10.39-11.834 10.39-6.21 0-11.835-5.462-11.835-10.39V9.909z" transform="translate(-7.000000, 0.000000) translate(7.000000, 0.000000) translate(0.163594, 0.091454)"/>
                    <path fill="#FABA00" fill-rule="nonzero" d="M7.33 28.178c.986-1.313 1.67-.107 2.42-2.032.464-1.19.188-2.44 2.907-3.143 3.074-.795.798-3.52 4.647-4.459 2.95-.72.558-3.921 4.876-4.597 2.393-.374.959-3.21 3.746-4.062l4.785.018v3.934c-3.79.305-2.198 3.865-5.153 4.286-3.827.546-1.36 3.847-5.3 4.598-2.946.56-1.08 3.472-4.129 4.27-3.139.82-2.17 1.968-3.142 3.378-.939 1.36-2.418.838-3.19 2.078-.953-.911-2.126-2.748-2.467-4.27M25.146 27.824c-.02.404-1.042.656-.94.703.56.256.912.458.912.458.698-.266.978-.834.921-1.395-.063-.64-.688-.994-1.288-.778-.133.047-.351.212-.32.41.031.208.4-.064.4.032 0 .115-.113-.032-.236.176-.093.16.177.334.41.147.074.04.147.113.14.247" transform="translate(-7.000000, 0.000000) translate(7.000000, 0.000000) translate(0.163594, 0.091454)"/>
                    <path stroke="#E20714" stroke-width=".5" d="M25.146 27.824c-.02.404-1.042.656-.94.703.56.256.912.458.912.458.698-.266.978-.834.921-1.395-.063-.64-.688-.994-1.288-.778-.133.047-.351.212-.32.41.031.208.4-.064.4.032 0 .115-.113-.032-.236.176-.093.16.177.334.41.147.074.04.147.113.14.247z" transform="translate(-7.000000, 0.000000) translate(7.000000, 0.000000) translate(0.163594, 0.091454)"/>
                    <path fill="#FABA00" fill-rule="nonzero" d="M23.221 33.47c.007.004.016.449.016.449-.64.079-.327.572-.798.541-.483-.13-.173-.934.317-1.137.253.102.26.051.465.148" transform="translate(-7.000000, 0.000000) translate(7.000000, 0.000000) translate(0.163594, 0.091454)"/>
                    <path stroke="#E20714" stroke-width=".5" d="M23.221 33.47c.007.004.016.449.016.449-.64.079-.327.572-.798.541-.483-.13-.173-.934.317-1.137.253.102.26.051.465.148z" transform="translate(-7.000000, 0.000000) translate(7.000000, 0.000000) translate(0.163594, 0.091454)"/>
                    <path fill="#FABA00" fill-rule="nonzero" d="M22.163 23.66s.147.53.376.787c.15.214.665.506.67-.298-.305-.167-.512-.49-.512-.863 0-.544.441-.985.985-.985s.984.441.984.985c0 .363-.196.68-.489.85 0 .82.519.526.67.311.23-.257.375-.788.375-.788 2.468.082 2.623-.339 2.715-.155.128.587-1.414.816-1.21.889.474.21 1.118-.12 1.082.073-.119.578-1.385.596-1.458.715-.036.183.889.137.925.266.092.349-1.521.385-1.622.367-.118.138.633.128.588.293-.137.311-1.193-.028-1.239.01-.155.136.496.292.304.44-.058.088-.766.078-1.175-.325l-.04 8.188c0 .445-.836.601-.797 0l-.03-8.198c-.409.413-1.128.423-1.186.335-.192-.148.46-.304.304-.44-.046-.038-1.102.301-1.239-.01-.045-.165.707-.155.587-.293-.1.018-1.713-.018-1.622-.367.037-.129.962-.083.926-.266-.074-.119-1.34-.137-1.458-.715-.037-.192.607.137 1.083-.073.203-.073-1.339-.302-1.211-.89.091-.183.247.238 2.714.156" transform="translate(-7.000000, 0.000000) translate(7.000000, 0.000000) translate(0.163594, 0.091454)"/>
                    <path fill="#FABA00" fill-rule="nonzero" d="M24.204 28.563c1.388.268 1.98 1.999.419 2.495-.011.003-.231-.098-.43-.19-.019.019-.002-.242-.002-.242.883-.35.72-1.193-.554-1.4-2.218-.373-2.37-.874-2.37-1.54 0-.48.524-1.135 1.257-.89.133.045.426.237.368.442-.064.224-.432-.08-.47.036-.024.073.3.037.374.14.107.15-.277.393-.581.153-.074.04-.142.177-.09.3.124.293.427.331 1.224.517.267.058.446.047.855.18" transform="translate(-7.000000, 0.000000) translate(7.000000, 0.000000) translate(0.163594, 0.091454)"/>
                    <path stroke="#E20714" stroke-width=".5" d="M24.204 28.563c1.388.268 1.98 1.999.419 2.495-.011.003-.231-.098-.43-.19-.019.019-.002-.242-.002-.242.883-.35.72-1.193-.554-1.4-2.218-.373-2.37-.874-2.37-1.54 0-.48.524-1.135 1.257-.89.133.045.426.237.368.442-.064.224-.432-.08-.47.036-.024.073.3.037.374.14.107.15-.277.393-.581.153-.074.04-.142.177-.09.3.124.293.427.331 1.224.517.267.058.446.047.855.18z" transform="translate(-7.000000, 0.000000) translate(7.000000, 0.000000) translate(0.163594, 0.091454)"/>
                    <path fill="#FABA00" fill-rule="nonzero" d="M22.396 28.959c.01-.005.448.155.793.234.023-.017 0 .288 0 .288-.31.06-.501.31-.52.448-.04.374.08.54 1.104.868 1.819.415 1.627 1.286 1.547 1.608-.1.405-.47.662-.854.8-.09-.006-.118-.079-.29-.171-.016-.01-.004-.216-.004-.216-.003-.028.408-.293.408-.57 0-.23-.022-.525-.896-.758-2.61-.464-2.13-2.106-1.288-2.531" transform="translate(-7.000000, 0.000000) translate(7.000000, 0.000000) translate(0.163594, 0.091454)"/>
                    <path stroke="#E20714" stroke-width=".5" d="M22.396 28.959c.01-.005.448.155.793.234.023-.017 0 .288 0 .288-.31.06-.501.31-.52.448-.04.374.08.54 1.104.868 1.819.415 1.627 1.286 1.547 1.608-.1.405-.47.662-.854.8-.09-.006-.118-.079-.29-.171-.016-.01-.004-.216-.004-.216-.003-.028.408-.293.408-.57 0-.23-.022-.525-.896-.758-2.61-.464-2.13-2.106-1.288-2.531z" transform="translate(-7.000000, 0.000000) translate(7.000000, 0.000000) translate(0.163594, 0.091454)"/>
                    <path fill="#FABA00" fill-rule="nonzero" d="M22.252 32.917c.313.316.857.474.857.474.493.236.527.236.831.371.644.236.526.762.833.698.374-.129.229-.887-.384-1.217-.475-.263-.69-.313-.96-.438-.873-.416-.905-.873-.24-1.353-.296-.146-.485-.147-.67-.279-.495.224-.94 1.063-.267 1.744" transform="translate(-7.000000, 0.000000) translate(7.000000, 0.000000) translate(0.163594, 0.091454)"/>
                    <path stroke="#E20714" stroke-width=".5" d="M22.252 32.917c.313.316.857.474.857.474.493.236.527.236.831.371.644.236.526.762.833.698.374-.129.229-.887-.384-1.217-.475-.263-.69-.313-.96-.438-.873-.416-.905-.873-.24-1.353-.296-.146-.485-.147-.67-.279-.495.224-.94 1.063-.267 1.744z" transform="translate(-7.000000, 0.000000) translate(7.000000, 0.000000) translate(0.163594, 0.091454)"/>
                    <g transform="translate(-7.000000, 0.000000) translate(7.000000, 0.000000) translate(0.163594, 0.091454)">
                        <mask id="boaaordtnb" fill="#fff">
                            <use xlink:href="#uhohitwkta"/>
                        </mask>
                        <path fill="#FABA00" fill-rule="nonzero" d="M10.762 21.691L13.644 21.691 13.644 15.118 10.762 15.118z" mask="url(#boaaordtnb)"/>
                    </g>
                    <g transform="translate(-7.000000, 0.000000) translate(7.000000, 0.000000) translate(0.163594, 0.091454)">
                        <mask id="3qhlsmas8d" fill="#fff">
                            <use xlink:href="#9hl5v5mqec"/>
                        </mask>
                        <path fill="#FABA00" fill-rule="nonzero" d="M8.72 11.617L14.582 11.617 16.13 12.961 16.13 14.769 13.644 14.769 10.762 14.769 8.72 14.769z" mask="url(#3qhlsmas8d)"/>
                    </g>
                    <g transform="translate(-7.000000, 0.000000) translate(7.000000, 0.000000) translate(0.163594, 0.091454)">
                        <mask id="ttzs6d43zf" fill="#fff">
                            <use xlink:href="#zrfg9i875e"/>
                        </mask>
                        <path fill="#000" fill-rule="nonzero" d="M42.325 18.987L42.325 27.853 39.85 27.853 39.85 18.987 36.514 18.987 36.514 16.888 45.676 16.888 45.676 18.987z" mask="url(#ttzs6d43zf)"/>
                    </g>
                    <g transform="translate(-7.000000, 0.000000) translate(7.000000, 0.000000) translate(0.163594, 0.091454)">
                        <mask id="ev2cpz39jh" fill="#fff">
                            <use xlink:href="#qgte2qvcdg"/>
                        </mask>
                        <path fill="#000" fill-rule="nonzero" d="M50.577 19.472l-1.738 4.26H52.3l-1.723-4.26zm-2.553 6.25l-.86 2.13H44.61l4.761-10.964h2.553l4.683 10.964H53.96l-.862-2.13h-5.075z" mask="url(#ev2cpz39jh)"/>
                    </g>
                    <g transform="translate(-7.000000, 0.000000) translate(7.000000, 0.000000) translate(0.163594, 0.091454)">
                        <mask id="dhcfkkqbmj" fill="#fff">
                            <use xlink:href="#kjp9ar8qii"/>
                        </mask>
                        <path fill="#000" fill-rule="nonzero" d="M67.428 27.852L67.428 20.459 64.515 26.74 62.902 26.74 59.989 20.459 59.989 27.852 57.75 27.852 57.75 16.888 60.521 16.888 63.717 23.592 66.896 16.888 69.651 16.888 69.651 27.852z" mask="url(#dhcfkkqbmj)"/>
                    </g>
                    <g transform="translate(-7.000000, 0.000000) translate(7.000000, 0.000000) translate(0.163594, 0.091454)">
                        <mask id="mb6spoqu7l" fill="#fff">
                            <use xlink:href="#lf9n1tyvrk"/>
                        </mask>
                        <path fill="#000" fill-rule="nonzero" d="M74.553 22.652h2.052c1.377 0 2.16-.626 2.16-1.88 0-1.221-.783-1.832-2.16-1.832h-2.052v3.712zm2.177-5.764c2.786 0 4.385 1.379 4.385 3.806 0 2.553-1.599 4.026-4.385 4.026h-2.177v3.132h-2.475V16.888h4.652z" mask="url(#mb6spoqu7l)"/>
                    </g>
                    <g transform="translate(-7.000000, 0.000000) translate(7.000000, 0.000000) translate(0.163594, 0.091454)">
                        <mask id="lxk9ylpxmn" fill="#fff">
                            <use xlink:href="#6ju7yqfkum"/>
                        </mask>
                        <path fill="#000" fill-rule="nonzero" d="M85.17 18.94L85.17 21.321 90.463 21.321 90.463 23.372 85.17 23.372 85.17 25.801 91.215 25.801 91.215 27.852 82.695 27.852 82.695 16.888 91.043 16.888 91.043 18.94z" mask="url(#lxk9ylpxmn)"/>
                    </g>
                    <g transform="translate(-7.000000, 0.000000) translate(7.000000, 0.000000) translate(0.163594, 0.091454)">
                        <mask id="g9uozq2kxp" fill="#fff">
                            <use xlink:href="#rp6fajiblo"/>
                        </mask>
                        <path fill="#000" fill-rule="nonzero" d="M97.917 22.652c1.364 0 2.146-.626 2.146-1.88 0-1.221-.782-1.832-2.146-1.832H95.63v3.712h2.287zm.235 2.068H95.63v3.132h-2.473V16.888h4.76c2.866 0 4.495 1.379 4.495 3.806 0 1.692-.72 2.914-2.052 3.54l2.335 3.618H99.89l-1.739-3.132z" mask="url(#g9uozq2kxp)"/>
                    </g>
                    <g transform="translate(-7.000000, 0.000000) translate(7.000000, 0.000000) translate(0.163594, 0.091454)">
                        <mask id="vtdwy178jr" fill="#fff">
                            <use xlink:href="#2a7hhvih0q"/>
                        </mask>
                        <path fill="#000" fill-rule="nonzero" d="M106.969 18.94L106.969 21.321 112.262 21.321 112.262 23.372 106.969 23.372 106.969 25.801 113.014 25.801 113.014 27.852 104.494 27.852 104.494 16.888 112.842 16.888 112.842 18.94z" mask="url(#vtdwy178jr)"/>
                    </g>
                </g>
            </g>
        </g>
    </g>
</svg>
